<?xml version="1.0" standalone="no"?>
<!DOCTYPE svg PUBLIC "-//W3C//DTD SVG 20010904//EN"
 "http://www.w3.org/TR/2001/REC-SVG-20010904/DTD/svg10.dtd">
<svg version="1.0" xmlns="http://www.w3.org/2000/svg"
 width="1024.000000pt" height="1024.000000pt" viewBox="0 0 1024.000000 1024.000000"
 preserveAspectRatio="xMidYMid meet">

<g transform="translate(0.000000,1024.000000) scale(0.100000,-0.100000)"
fill="#000000" stroke="none">
<path d="M4985 10023 c-450 -27 -708 -92 -1060 -267 -169 -84 -208 -107 -350
-209 -265 -191 -422 -352 -623 -634 -311 -437 -481 -1051 -442 -1596 28 -391
116 -706 291 -1036 89 -168 239 -391 239 -356 0 4 -6 33 -14 64 -37 146 -46
291 -46 768 l0 465 28 -6 c85 -17 381 -46 532 -52 174 -6 491 7 600 26 30 5
100 16 155 25 320 52 676 194 950 378 265 178 532 484 680 777 33 65 55 82 55
42 0 -30 61 -191 110 -290 154 -314 382 -540 663 -658 78 -33 281 -84 334 -84
37 0 43 -3 49 -25 4 -14 4 -270 1 -568 -4 -489 -7 -554 -26 -667 -11 -69 -25
-143 -30 -165 -6 -22 -8 -41 -7 -43 6 -5 107 142 170 246 68 113 124 222 170
334 163 397 225 817 181 1232 -48 450 -183 822 -430 1186 -436 641 -1179 1067
-1930 1105 -60 3 -130 7 -155 9 -25 1 -67 1 -95 -1z"/>
<path d="M2490 4589 c-247 -28 -438 -118 -606 -284 -160 -159 -239 -305 -273
-507 -8 -42 -16 -330 -11 -400 0 -4 24 10 53 32 86 66 187 110 417 180 58 18
124 39 148 46 23 8 49 14 57 14 13 0 15 -175 15 -1383 l0 -1382 23 -15 c151
-96 320 -193 494 -281 l213 -108 2 1701 3 1702 50 17 c28 9 104 33 170 54 66
20 131 41 145 45 14 5 72 23 130 41 239 72 195 41 377 260 152 182 162 197
162 237 l1 42 -747 -1 c-412 -1 -782 -5 -823 -10z"/>
<path d="M6107 4593 c-4 -3 -7 -26 -7 -49 0 -47 -8 -35 225 -321 79 -96 95
-111 135 -123 25 -7 81 -24 125 -37 128 -38 165 -49 245 -73 41 -12 86 -25
100 -30 14 -5 59 -18 100 -30 41 -12 85 -25 97 -30 l23 -10 2 -1700 3 -1700
200 99 c110 54 273 143 363 197 l162 97 0 1388 c0 840 4 1390 9 1394 5 3 29
-1 53 -9 24 -8 77 -24 118 -36 156 -46 237 -72 285 -92 59 -23 179 -93 196
-114 28 -34 31 -11 26 189 -5 230 -15 278 -83 425 -147 316 -454 527 -818 562
-120 11 -1548 14 -1559 3z"/>
<path d="M5053 3658 c-6 -7 -39 -56 -75 -108 -141 -208 -245 -360 -317 -465
-41 -60 -85 -125 -98 -143 l-22 -34 59 -86 c32 -48 93 -136 135 -197 86 -124
82 -98 50 -300 -8 -55 -22 -145 -30 -200 -8 -55 -21 -140 -29 -190 -8 -49 -19
-121 -25 -160 -6 -38 -17 -115 -26 -170 -19 -124 -42 -271 -60 -395 -21 -140
-39 -257 -79 -520 -20 -129 -43 -280 -51 -335 -9 -55 -20 -122 -25 -148 -16
-79 -13 -104 13 -111 12 -3 78 -11 147 -16 69 -6 175 -15 236 -20 143 -13 338
-13 489 0 66 5 174 14 239 20 66 5 124 14 129 19 7 7 6 34 -1 78 -6 37 -18
115 -27 173 -19 127 -42 275 -55 350 -5 30 -16 102 -25 160 -21 136 -42 272
-60 385 -8 50 -21 137 -30 195 -9 58 -20 132 -26 165 -10 60 -36 232 -65 420
-8 55 -19 125 -24 155 -5 30 -19 117 -31 193 l-21 138 61 87 c33 48 92 134
131 190 l71 104 -116 171 c-284 419 -391 575 -404 591 -16 19 -25 20 -38 4z"/>
</g>
</svg>
